<?xml version="1.0" encoding="utf-8"?>
<!-- Generator: Adobe Illustrator 23.0.0, SVG Export Plug-In . SVG Version: 6.00 Build 0)  -->
<svg version="1.1" id="Capa_1" xmlns="http://www.w3.org/2000/svg" xmlns:xlink="http://www.w3.org/1999/xlink" x="0px" y="0px"
	 viewBox="0 0 27 27" style="enable-background:new 0 0 27 27;" xml:space="preserve">
<style type="text/css">
	.st0{fill:none;stroke:#68884D;stroke-width:3;stroke-miterlimit:10;}
	.st1{fill:#68884D;}
	.st2{fill:#E27F12;}
	.st3{fill:none;stroke:#E27F12;stroke-width:3;stroke-miterlimit:10;}
</style>
<g>
	<circle class="st0" cx="13.5" cy="13.5" r="12"/>
	<g>
		<path class="st1" d="M21.53,13.48L21.53,13.48c0,1.08-0.87,1.95-1.95,1.95H7.42c-1.08,0-1.95-0.87-1.95-1.95v0
			c0-1.08,0.87-1.95,1.95-1.95h12.16C20.66,11.53,21.53,12.41,21.53,13.48z M15.68,6.99v13.02c0,1.08-0.87,1.95-1.95,1.95h-0.42
			c-1.08,0-1.95-0.87-1.95-1.95V6.99c0-1.08,0.87-1.95,1.95-1.95h0.42C14.8,5.04,15.68,5.91,15.68,6.99z"/>
	</g>
</g>
</svg>
